<svg width="107" height="106" viewBox="0 0 107 106" fill="none" xmlns="http://www.w3.org/2000/svg">
<g filter="url(#filter0_d)">
<rect x="5.5" y="1.5" width="93.9917" height="95" rx="13.5" stroke="#FFFEFE" stroke-width="3"/>
<path d="M18.8999 12.4973V17.1731H22.1519V20.8997H18.8999V30.3918C18.8999 31.095 19.0347 31.5989 19.3042 31.9036C19.5737 32.2083 20.0894 32.3606 20.8511 32.3606C21.4136 32.3606 21.9116 32.3196 22.3452 32.2375V36.0872C21.3491 36.3918 20.3237 36.5442 19.269 36.5442C15.7065 36.5442 13.8901 34.7454 13.8198 31.1477V20.8997H11.0425V17.1731H13.8198V12.4973H18.8999ZM34.1694 21.9368C33.478 21.843 32.8687 21.7961 32.3413 21.7961C30.4194 21.7961 29.1597 22.4465 28.562 23.7473V36.1926H23.4819V17.1731H28.2808L28.4214 19.4407C29.4409 17.6946 30.853 16.8215 32.6577 16.8215C33.2202 16.8215 33.7476 16.8977 34.2397 17.05L34.1694 21.9368Z" fill="#FFF8F8"/>
<path d="M18.8999 12.4973V17.1731H22.1519V20.8997H18.8999V30.3918C18.8999 31.095 19.0347 31.5989 19.3042 31.9036C19.5737 32.2083 20.0894 32.3606 20.8511 32.3606C21.4136 32.3606 21.9116 32.3196 22.3452 32.2375V36.0872C21.3491 36.3918 20.3237 36.5442 19.269 36.5442C15.7065 36.5442 13.8901 34.7454 13.8198 31.1477V20.8997H11.0425V17.1731H13.8198V12.4973H18.8999ZM34.1694 21.9368C33.478 21.843 32.8687 21.7961 32.3413 21.7961C30.4194 21.7961 29.1597 22.4465 28.562 23.7473V36.1926H23.4819V17.1731H28.2808L28.4214 19.4407C29.4409 17.6946 30.853 16.8215 32.6577 16.8215C33.2202 16.8215 33.7476 16.8977 34.2397 17.05L34.1694 21.9368Z" fill="white"/>
<path d="M44.8286 55.1619L48.3618 42.3474H53.6704L47.2544 61.3669H42.4028L35.9868 42.3474H41.2954L44.8286 55.1619ZM59.7817 61.3669H54.6841V34.3669H59.7817V61.3669Z" fill="white"/>
<g filter="url(#filter1_d)">
<path d="M78.4387 74.9827C77.7473 74.8889 77.1379 74.842 76.6106 74.842C74.6887 74.842 73.429 75.4924 72.8313 76.7932V89.2385H67.7512V70.219H72.55L72.6907 72.4866C73.7102 70.7405 75.1223 69.8674 76.927 69.8674C77.4895 69.8674 78.0168 69.9436 78.509 70.0959L78.4387 74.9827ZM76.6047 86.7424C76.6047 85.9338 76.8743 85.2776 77.4133 84.7737C77.9641 84.2698 78.6497 84.0178 79.47 84.0178C80.302 84.0178 80.9875 84.2698 81.5266 84.7737C82.0774 85.2776 82.3528 85.9338 82.3528 86.7424C82.3528 87.5393 82.0833 88.1897 81.5442 88.6936C81.0051 89.1858 80.3137 89.4319 79.47 89.4319C78.6379 89.4319 77.9524 89.1858 77.4133 88.6936C76.8743 88.1897 76.6047 87.5393 76.6047 86.7424Z" fill="#1FB09A"/>
</g>
</g>
<defs>
<filter id="filter0_d" x="0" y="0" width="111" height="106" filterUnits="userSpaceOnUse" color-interpolation-filters="sRGB">
<feFlood flood-opacity="0" result="BackgroundImageFix"/>
<feColorMatrix in="SourceAlpha" type="matrix" values="0 0 0 0 0 0 0 0 0 0 0 0 0 0 0 0 0 0 127 0"/>
<feOffset dy="4"/>
<feGaussianBlur stdDeviation="2"/>
<feColorMatrix type="matrix" values="0 0 0 0 0 0 0 0 0 0 0 0 0 0 0 0 0 0 0.25 0"/>
<feBlend mode="normal" in2="BackgroundImageFix" result="effect1_dropShadow"/>
<feBlend mode="normal" in="SourceGraphic" in2="effect1_dropShadow" result="shape"/>
</filter>
<filter id="filter1_d" x="63.7512" y="69.8674" width="22.6016" height="27.5645" filterUnits="userSpaceOnUse" color-interpolation-filters="sRGB">
<feFlood flood-opacity="0" result="BackgroundImageFix"/>
<feColorMatrix in="SourceAlpha" type="matrix" values="0 0 0 0 0 0 0 0 0 0 0 0 0 0 0 0 0 0 127 0"/>
<feOffset dy="4"/>
<feGaussianBlur stdDeviation="2"/>
<feColorMatrix type="matrix" values="0 0 0 0 0 0 0 0 0 0 0 0 0 0 0 0 0 0 0.25 0"/>
<feBlend mode="normal" in2="BackgroundImageFix" result="effect1_dropShadow"/>
<feBlend mode="normal" in="SourceGraphic" in2="effect1_dropShadow" result="shape"/>
</filter>
</defs>
</svg>
